<svg xmlns="http://www.w3.org/2000/svg" viewBox="0 0 1000 620">
<defs>
 <linearGradient id="bg" x1="0" y1="0" x2="1" y2="1"><stop stop-color="#07111f"/><stop offset=".55" stop-color="#0b2440"/><stop offset="1" stop-color="#17153d"/></linearGradient>
 <linearGradient id="a" x1="0" y1="0" x2="1" y2="1"><stop stop-color="#38bdf8"/><stop offset="1" stop-color="#818cf8"/></linearGradient>
</defs>
<rect width="1000" height="620" rx="30" fill="url(#bg)"/>
<circle cx="850" cy="80" r="170" fill="#38bdf8" opacity=".08"/><circle cx="90" cy="570" r="180" fill="#818cf8" opacity=".07"/>
<rect x="58" y="55" width="110" height="44" rx="22" fill="#102d49" stroke="#285276"/>
<text x="113" y="85" text-anchor="middle" font-family="Arial" font-size="20" font-weight="700" fill="#8edaff">06</text>
<text x="58" y="190" font-family="Arial" font-size="52" font-weight="800" fill="#eef8ff">Zanduco</text>
<text x="58" y="245" font-family="Arial" font-size="22" font-weight="700" fill="#55c7ff">OPEN SOURCE</text>
<text x="58" y="290" font-family="Arial" font-size="20" fill="#9ebbd4">Magento Open Source • B2B / B2C</text>
<g transform="translate(600 165)">
<rect width="300" height="240" rx="26" fill="#0a1728" stroke="#234765" stroke-width="2"/>
<rect x="25" y="25" width="250" height="30" rx="10" fill="#112b46"/>
<rect x="25" y="80" width="105" height="105" rx="18" fill="url(#a)" opacity=".78"/>
<rect x="155" y="80" width="120" height="18" rx="9" fill="#80b4d5" opacity=".65"/>
<rect x="155" y="112" width="90" height="12" rx="6" fill="#426886"/>
<rect x="155" y="138" width="105" height="12" rx="6" fill="#426886"/>
<rect x="25" y="205" width="250" height="10" rx="5" fill="#315674"/>
</g>
<text x="58" y="535" font-family="Arial" font-size="18" fill="#668ba9">Tarun Mahajan • eCommerce Engineering</text>
</svg>